<svg width="67" height="30" viewBox="0 0 67 30" fill="none" xmlns="http://www.w3.org/2000/svg">
<path d="M23.9918 0.243471C24.6256 0.585366 25.0207 1.23549 25.0207 1.94259V12.9532H46.7613C47.8591 12.9532 48.75 13.8235 48.75 14.8958C48.75 15.9681 47.8591 16.8384 46.7613 16.8384H25.0207V27.8489C25.0207 28.5586 24.6256 29.2088 23.9918 29.5481C23.3581 29.8925 22.5838 29.8692 21.9713 29.4937L0.928066 16.5405C0.350014 16.1831 0 15.564 0 14.8958C0 14.2275 0.350014 13.6085 0.928066 13.251L21.9713 0.297863C22.2948 0.101015 22.6634 0 23.032 0C23.3608 0 23.6922 0.0828837 23.9918 0.243471Z" fill="white"/>
<path d="M24.375 14.8958H63.375" stroke="white" stroke-width="6" stroke-linecap="round" stroke-linejoin="round"/>
</svg>
